<svg xmlns="http://www.w3.org/2000/svg" width="300" height="69" viewBox="0 0 300 69" fill="none">
<path d="M118.298 40.4873C118.652 40.4873 118.958 40.6201 119.212 40.8724C119.465 41.1313 119.599 41.4367 119.599 41.7886V45.2143C119.599 45.5728 119.472 45.8715 119.212 46.1304C118.952 46.3894 118.645 46.5155 118.298 46.5155H97.1218C96.7684 46.5155 96.4616 46.3827 96.2016 46.1304C95.9416 45.8715 95.8149 45.5661 95.8149 45.2143V14.0377C95.8149 13.6858 95.9482 13.3804 96.2016 13.1215C96.455 12.8626 96.7684 12.7365 97.1218 12.7365H117.912C118.265 12.7365 118.572 12.8692 118.825 13.1215C119.079 13.3804 119.212 13.6858 119.212 14.0377V17.4634C119.212 17.8219 119.079 18.1206 118.825 18.3796C118.572 18.6385 118.258 18.7646 117.912 18.7646H102.329V26.4393H116.851C117.205 26.4393 117.512 26.5721 117.765 26.8243C118.018 27.0766 118.152 27.3886 118.152 27.7405V31.1662C118.152 31.5247 118.025 31.8235 117.765 32.0824C117.505 32.3413 117.198 32.4675 116.851 32.4675H102.329V40.4807H118.298V40.4873Z" fill="#8B52FF"/>
<path d="M125.153 27.5944C125.28 26.9173 125.58 26.1936 126.046 25.4235C126.513 24.6534 127.166 23.9297 128.027 23.2525C128.88 22.5754 129.92 22.0177 131.16 21.5862C132.401 21.1546 133.841 20.9355 135.481 20.9355C137.121 20.9355 138.602 21.148 139.922 21.5862C141.242 22.0177 142.375 22.655 143.322 23.4915C144.276 24.3281 145.003 25.3837 145.516 26.6517C146.029 27.9264 146.289 29.3803 146.289 31.0201V45.2142C146.289 45.5727 146.163 45.8715 145.903 46.1304C145.649 46.3893 145.336 46.5155 144.983 46.5155H141.315C140.962 46.5155 140.655 46.3827 140.395 46.1304C140.142 45.8715 140.008 45.5661 140.008 45.2142V43.6209C139.335 44.557 138.362 45.347 137.088 46.0109C135.814 46.6682 134.201 47.0001 132.241 47.0001C130.86 47.0001 129.62 46.8142 128.527 46.4424C127.433 46.0707 126.513 45.5462 125.78 44.8756C125.039 44.1985 124.473 43.4018 124.066 42.4856C123.659 41.5694 123.459 40.5603 123.459 39.4715C123.459 37.2541 124.246 35.5147 125.82 34.2599C127.393 33.0052 129.5 32.1554 132.141 31.7039L140.008 30.3562C140.008 29.0417 139.575 28.1056 138.708 27.5612C137.841 27.0168 136.761 26.738 135.474 26.738C134.668 26.738 134.041 26.8509 133.594 27.0766C133.141 27.3023 132.707 27.6077 132.294 27.9928C132.007 28.2517 131.734 28.4243 131.494 28.5239C131.254 28.6235 130.987 28.6699 130.694 28.6699H126.206C125.886 28.6699 125.606 28.5704 125.386 28.3778C125.159 28.1853 125.079 27.9264 125.146 27.6077L125.153 27.5944ZM133.207 41.2043C134.301 41.2043 135.274 41.0516 136.128 40.7462C136.981 40.4408 137.695 40.0292 138.275 39.5114C138.855 38.9935 139.288 38.4159 139.575 37.772C139.862 37.128 140.008 36.4707 140.008 35.7935V35.3089L133.447 36.4641C132.127 36.6898 131.18 37.0218 130.6 37.4533C130.02 37.8848 129.734 38.4757 129.734 39.2193C129.734 39.8964 130.08 40.3944 130.774 40.713C131.467 41.0383 132.274 41.1977 133.207 41.1977V41.2043Z" fill="#8B52FF"/>
<path d="M164.426 27.2095C162.499 27.2095 161.105 27.6344 160.252 28.4908C159.398 29.3472 158.971 30.7348 158.971 32.6667V45.2143C158.971 45.5728 158.838 45.8782 158.585 46.1305C158.325 46.3894 158.018 46.5156 157.671 46.5156H154.004C153.651 46.5156 153.344 46.3828 153.09 46.1305C152.83 45.8716 152.704 45.5662 152.704 45.2143V22.7215C152.704 22.3697 152.837 22.0643 153.09 21.8053C153.344 21.5464 153.657 21.4203 154.004 21.4203H157.671C158.025 21.4203 158.331 21.5531 158.585 21.8053C158.838 22.0643 158.971 22.3697 158.971 22.7215V23.8302C159.805 23.0601 160.698 22.4626 161.652 22.0443C162.599 21.6261 163.845 21.4203 165.392 21.4203H167.559C167.913 21.4203 168.219 21.5531 168.48 21.8053C168.733 22.0643 168.866 22.3697 168.866 22.7215V25.9082C168.866 26.2667 168.733 26.5655 168.48 26.8244C168.226 27.0833 167.913 27.2095 167.559 27.2095H164.426Z" fill="#8B52FF"/>
<path d="M179.135 45.2144C179.135 45.5729 179.001 45.8783 178.748 46.1306C178.488 46.3895 178.181 46.5156 177.828 46.5156H174.16C173.8 46.5156 173.5 46.3829 173.24 46.1306C172.98 45.8717 172.854 45.5663 172.854 45.2144V13.5532C172.854 13.2013 172.98 12.8959 173.24 12.637C173.5 12.3781 173.807 12.252 174.16 12.252H177.828C178.181 12.252 178.488 12.3847 178.748 12.637C179.001 12.8959 179.135 13.2013 179.135 13.5532V45.2144Z" fill="#8B52FF"/>
<path d="M193.417 45.1679L183.862 23.0601C183.829 22.9605 183.815 22.8543 183.815 22.7215C183.815 22.3697 183.949 22.0643 184.202 21.8053C184.455 21.5464 184.769 21.4203 185.115 21.4203H188.729C189.116 21.4203 189.449 21.5531 189.743 21.8053C190.03 22.0643 190.223 22.3232 190.323 22.5755L196.737 37.4932L203.152 22.5755C203.245 22.3165 203.438 22.0576 203.732 21.8053C204.025 21.5531 204.358 21.4203 204.745 21.4203H208.359C208.712 21.4203 209.019 21.5531 209.279 21.8053C209.533 22.0643 209.666 22.3697 209.666 22.7215C209.666 22.8543 209.653 22.9605 209.619 23.0601L196.064 54.5288C195.97 54.7877 195.777 55.0466 195.484 55.2989C195.197 55.5578 194.857 55.684 194.47 55.684H190.856C190.503 55.684 190.196 55.5512 189.943 55.2989C189.683 55.04 189.556 54.7346 189.556 54.3827C189.556 54.25 189.569 54.1437 189.603 54.0442L193.41 45.1612L193.417 45.1679Z" fill="#8B52FF"/>
<path d="M227.769 20.9357C229.376 20.9357 230.836 21.2544 232.136 21.8785C233.436 22.5025 234.55 23.3457 235.463 24.388C236.377 25.4369 237.104 26.6386 237.637 28.0062C238.164 29.3738 238.464 30.7946 238.53 32.2751C238.564 32.7597 238.577 33.324 238.577 33.9614C238.577 34.5987 238.564 35.1697 238.53 35.6477C238.47 37.1282 238.164 38.5555 237.637 39.9165C237.104 41.2841 236.383 42.4924 235.463 43.5348C234.55 44.5837 233.436 45.4136 232.136 46.0443C230.836 46.6683 229.376 46.987 227.769 46.987C226.769 46.987 225.882 46.8874 225.088 46.6949C224.302 46.5024 223.608 46.2634 223.015 45.9713C222.421 45.6791 221.915 45.3671 221.494 45.0285C221.074 44.6899 220.734 44.3779 220.481 44.0858V45.1945C220.481 45.553 220.354 45.8518 220.094 46.1107C219.834 46.3696 219.527 46.4957 219.181 46.4957H215.514C215.16 46.4957 214.853 46.363 214.6 46.1107C214.34 45.8518 214.213 45.5464 214.213 45.1945V13.5532C214.213 13.2013 214.347 12.8959 214.6 12.637C214.853 12.3781 215.167 12.252 215.514 12.252H219.181C219.534 12.252 219.841 12.3847 220.094 12.637C220.348 12.8959 220.481 13.2013 220.481 13.5532V23.8303C220.734 23.5382 221.074 23.2262 221.494 22.8876C221.915 22.549 222.421 22.237 223.015 21.9448C223.608 21.6527 224.302 21.4137 225.088 21.2212C225.875 21.0287 226.769 20.9291 227.769 20.9291V20.9357ZM232.256 32.6203C232.063 30.529 231.416 29.022 230.329 28.1058C229.236 27.1896 227.902 26.7315 226.329 26.7315C224.755 26.7315 223.421 27.2162 222.348 28.1788C221.268 29.1415 220.654 30.4626 220.488 32.1357C220.421 32.6203 220.388 33.2311 220.388 33.968C220.388 34.7049 220.421 35.3157 220.488 35.8004C220.648 37.5398 221.268 38.8742 222.348 39.8037C223.421 40.7397 224.755 41.2045 226.329 41.2045C227.902 41.2045 229.242 40.7464 230.329 39.8302C231.423 38.914 232.063 37.4136 232.256 35.3157C232.356 34.4128 232.356 33.5166 232.256 32.6137V32.6203Z" fill="#8B52FF"/>
<path d="M249.285 12.252C249.639 12.252 249.946 12.3847 250.199 12.637C250.452 12.8959 250.586 13.2013 250.586 13.5532V17.3175C250.586 17.676 250.452 17.9747 250.199 18.2337C249.946 18.4926 249.632 18.6187 249.285 18.6187H245.138C244.785 18.6187 244.478 18.4926 244.225 18.2337C243.965 17.9747 243.838 17.6693 243.838 17.3175V13.5532C243.838 13.2013 243.971 12.8959 244.225 12.637C244.478 12.3781 244.791 12.252 245.138 12.252H249.285ZM250.346 45.2144C250.346 45.5729 250.219 45.8783 249.959 46.1306C249.699 46.3895 249.392 46.5156 249.045 46.5156H245.378C245.025 46.5156 244.718 46.3829 244.465 46.1306C244.205 45.8717 244.078 45.5663 244.078 45.2144V22.7216C244.078 22.3697 244.205 22.0643 244.465 21.8054C244.725 21.5465 245.031 21.4204 245.378 21.4204H249.045C249.399 21.4204 249.706 21.5531 249.959 21.8054C250.212 22.0643 250.346 22.3697 250.346 22.7216V45.2144Z" fill="#8B52FF"/>
<path d="M268.728 27.2095C266.802 27.2095 265.408 27.6344 264.554 28.4908C263.701 29.3472 263.274 30.7348 263.274 32.6667V45.2143C263.274 45.5728 263.141 45.8782 262.888 46.1305C262.628 46.3894 262.321 46.5156 261.974 46.5156H258.307C257.953 46.5156 257.647 46.3828 257.393 46.1305C257.133 45.8716 257.007 45.5662 257.007 45.2143V22.7215C257.007 22.3697 257.14 22.0643 257.393 21.8053C257.647 21.5464 257.96 21.4203 258.307 21.4203H261.974C262.327 21.4203 262.634 21.5531 262.888 21.8053C263.141 22.0643 263.274 22.3697 263.274 22.7215V23.8302C264.108 23.0601 265.001 22.4626 265.955 22.0443C266.902 21.6261 268.148 21.4203 269.695 21.4203H271.869C272.222 21.4203 272.529 21.5531 272.782 21.8053C273.036 22.0643 273.169 22.3697 273.169 22.7215V25.9082C273.169 26.2667 273.042 26.5655 272.782 26.8244C272.522 27.0833 272.216 27.2095 271.869 27.2095H268.735H268.728Z" fill="#8B52FF"/>
<path d="M286.431 20.9422C287.431 20.9422 288.318 21.0418 289.112 21.2343C289.898 21.4268 290.592 21.6658 291.185 21.958C291.779 22.2501 292.285 22.5621 292.705 22.9007C293.119 23.2393 293.459 23.5513 293.719 23.8434V13.5663C293.719 13.2144 293.852 12.9024 294.106 12.6501C294.359 12.3912 294.672 12.2651 295.026 12.2651H298.693C299.046 12.2651 299.353 12.3979 299.613 12.6501C299.867 12.9091 300 13.2144 300 13.5663V45.2275C300 45.586 299.873 45.8848 299.613 46.1437C299.353 46.4026 299.046 46.5288 298.693 46.5288H295.026C294.672 46.5288 294.366 46.396 294.106 46.1437C293.846 45.8848 293.719 45.5794 293.719 45.2275V44.1188C293.466 44.4109 293.119 44.723 292.705 45.0616C292.285 45.4001 291.779 45.7122 291.185 46.0043C290.585 46.2964 289.898 46.5354 289.112 46.7279C288.325 46.9205 287.431 47.0201 286.431 47.0201C284.818 47.0201 283.364 46.7014 282.064 46.0773C280.764 45.4533 279.65 44.6167 278.737 43.5678C277.823 42.5188 277.096 41.3172 276.57 39.9496C276.036 38.5819 275.743 37.1612 275.676 35.6807C275.643 35.1961 275.63 34.6317 275.63 33.9944C275.63 33.3571 275.643 32.7861 275.676 32.3081C275.736 30.8276 276.043 29.4069 276.57 28.0393C277.103 26.6716 277.823 25.4633 278.737 24.421C279.65 23.3721 280.764 22.5422 282.064 21.9115C283.364 21.2874 284.818 20.9688 286.431 20.9688V20.9422ZM281.944 32.6135C281.85 33.5164 281.85 34.4193 281.944 35.3156C282.137 37.4068 282.777 38.9139 283.871 39.8301C284.964 40.7462 286.298 41.2043 287.871 41.2043C289.445 41.2043 290.772 40.7396 291.852 39.8035C292.926 38.874 293.546 37.533 293.712 35.8002C293.772 35.3156 293.806 34.7048 293.806 33.9678C293.806 33.2309 293.772 32.6201 293.712 32.1355C293.552 30.4625 292.932 29.1413 291.852 28.1787C290.772 27.216 289.445 26.7314 287.871 26.7314C286.298 26.7314 284.958 27.1895 283.871 28.1056C282.777 29.0218 282.137 30.5289 281.944 32.6201V32.6135Z" fill="#8B52FF"/>
<path d="M65.5235 0.879333H10.6683C4.77408 0.879333 0 5.63283 0 11.5017V66.1337C0 67.7071 1.75361 68.6631 3.08048 67.8067L16.8426 58.9968C17.1627 58.791 17.5427 58.6781 17.9228 58.6781H56.8555C62.7498 58.6781 67.5238 53.9246 67.5238 48.0558V2.87102C67.5238 1.76895 66.6304 0.879333 65.5235 0.879333Z" fill="url(#paint0_linear_332_54)"/>
<mask id="mask0_332_54" style="mask-type:luminance" maskUnits="userSpaceOnUse" x="0" y="0" width="68" height="69">
<path d="M65.5235 0.879333H10.6683C4.77408 0.879333 0 5.63283 0 11.5017V66.1337C0 67.7071 1.75361 68.6631 3.08048 67.8067L16.8426 58.9968C17.1627 58.791 17.5427 58.6781 17.9228 58.6781H56.8555C62.7498 58.6781 67.5238 53.9246 67.5238 48.0558V2.87102C67.5238 1.76895 66.6304 0.879333 65.5235 0.879333Z" fill="white"/>
</mask>
<g mask="url(#mask0_332_54)">
<path d="M53.1949 36.1589C53.1949 36.1589 42.2732 39.5647 42.2732 48.6468C42.2732 57.7289 45.107 59.1497 45.107 59.1497H32.3383C32.3383 59.1497 28.291 43.7805 36.0256 38.1971C43.7601 32.6071 53.1883 36.1589 53.1883 36.1589H53.1949Z" fill="url(#paint1_linear_332_54)"/>
<path d="M53.195 36.1588C53.195 36.1588 45.3471 31.9033 38.2527 31.9033C8.15464 31.9033 1.42026 64.9719 0.880177 67.913C-0.106643 67.508 -0.853426 66.5587 -0.853426 65.3371V59.1562H-0.893433V14.1573C-0.893433 14.1573 4.8808 8.47437 13.6022 8.47437H20.3965C28.3378 8.47437 41.6932 10.4129 41.6932 22.0975C54.8886 23.9432 53.1883 36.1456 53.1883 36.1456L53.195 36.1588Z" fill="url(#paint2_linear_332_54)"/>
<path d="M53.1949 36.1588C47.4474 35.0965 43.8535 36.8625 41.1264 38.7878C35.1054 43.0434 33.8986 49.689 33.8986 59.1495H17.376L3.37385 67.7071C2.56039 68.2051 1.64691 68.225 0.880127 67.9129C1.42021 64.9785 8.15459 31.9032 38.2526 31.9032C46.7739 31.9032 53.1949 36.1588 53.1949 36.1588Z" fill="url(#paint3_linear_332_54)"/>
<path d="M21.1966 20.0195C21.0099 19.6079 21.27 19.1299 21.7234 19.0768C22.4702 18.9905 23.7103 18.9506 25.3306 19.2162C26.9909 19.4884 28.211 19.9199 28.9445 20.2386C29.3712 20.4245 29.4979 20.9888 29.1645 21.3207C28.3377 22.1506 26.7108 23.3722 24.6438 22.8145C22.5768 22.3299 21.61 20.9224 21.19 20.0195H21.1966Z" fill="#9966FF"/>
</g>
<defs>
<linearGradient id="paint0_linear_332_54" x1="62.6697" y1="7.85024" x2="9.55738" y2="48.4894" gradientUnits="userSpaceOnUse">
<stop stop-color="#C366FF"/>
<stop offset="0.64" stop-color="#8B52FF"/>
</linearGradient>
<linearGradient id="paint1_linear_332_54" x1="32.1783" y1="56.7397" x2="47.848" y2="41.4224" gradientUnits="userSpaceOnUse">
<stop stop-opacity="0"/>
<stop offset="1" stop-opacity="0.1"/>
</linearGradient>
<linearGradient id="paint2_linear_332_54" x1="-5.06075" y1="47.7903" x2="38.6076" y2="15.7502" gradientUnits="userSpaceOnUse">
<stop stop-color="#D3E2F4"/>
<stop offset="0.04" stop-color="#D5E3F4"/>
<stop offset="0.36" stop-color="#E9F0F7"/>
<stop offset="0.68" stop-color="#F5F7F9"/>
<stop offset="1" stop-color="#FAFAFA"/>
</linearGradient>
<linearGradient id="paint3_linear_332_54" x1="2.90711" y1="55.8632" x2="52.3425" y2="38.7291" gradientUnits="userSpaceOnUse">
<stop stop-color="#D3E2F4"/>
<stop offset="1" stop-color="#BBCDEF"/>
</linearGradient>
</defs>
</svg>